<svg t="1730735452292" class="icon" viewBox="0 0 1024 1024" version="1.1" xmlns="http://www.w3.org/2000/svg" p-id="4263" width="512" height="512"><path d="M185.6 70.826667c-40.917333 0-71.936 12.714667-93.056 38.101333-21.162667 25.386667-31.744 62.464-31.744 111.146667v148.224c0 34.346667-3.669333 60.757333-11.050667 79.274666-7.381333 18.517333-21.034667 35.84-40.96 51.968-5.888 4.821333-8.789333 8.789333-8.789333 11.861334 0 3.072 2.901333 7.04 8.746667 11.818666 20.309333 16.469333 34.048 33.877333 41.258666 52.266667 7.253333 18.346667 10.794667 44.672 10.794667 78.976v147.712c0 49.066667 10.666667 86.314667 32 111.701333 21.333333 25.386667 52.224 38.058667 92.757333 38.058667h37.632c16.170667 0 26.368-0.768 30.72-2.304 4.266667-1.536 6.4-5.418667 6.4-11.562667 0-8.576-5.674667-14.250667-17.024-16.981333l-20.608-4.650667c-45.354667-10.282667-68.053333-55.04-68.053333-134.314666v-140.501334c0-53.205333-12.885333-90.752-38.656-112.725333l-9.813333-8.234667c-4.778667-4.096-7.168-7.210667-7.168-9.258666 0-2.389333 2.389333-5.504 7.210666-9.258667l9.813334-8.234667c25.728-21.973333 38.613333-59.52 38.613333-112.725333V240.682667c0-47.36 5.76-80.213333 17.28-98.56 11.52-18.346667 35.498667-32.512 71.893333-42.453334 11.008-3.114667 16.512-8.106667 16.512-14.933333 0-9.258667-12.373333-13.909333-37.12-13.909333z m615.210667 1.237333c-24.746667 0-37.12 4.608-37.12 13.866667 0 6.869333 5.461333 11.861333 16.469333 14.933333 36.437333 9.941333 60.416 24.106667 71.936 42.453333 11.52 18.346667 17.28 51.2 17.28 98.56v140.544c0 53.162667 12.885333 90.709333 38.656 112.682667l9.770667 8.234667c4.821333 3.797333 7.253333 6.869333 7.253333 9.258666 0 2.090667-2.432 5.162667-7.253333 9.258667l-9.813334 8.234667c-25.728 21.973333-38.613333 59.562667-38.613333 112.725333v140.501333c0 79.274667-22.698667 124.032-68.053333 134.357334l-20.650667 4.608c-11.349333 2.730667-16.981333 8.405333-16.981333 16.981333 0 6.186667 2.133333 10.026667 6.4 11.605333 4.352 1.536 14.549333 2.304 30.72 2.304h37.632c40.533333 0 71.466667-12.714667 92.757333-38.101333 21.333333-25.386667 32-62.592 32-111.658667v-147.712c0-34.346667 3.584-60.672 10.794667-79.018666 7.253333-18.346667 20.949333-35.754667 41.258666-52.224 5.845333-4.821333 8.746667-8.746667 8.746667-11.861334 0-3.072-2.901333-7.04-8.746667-11.818666-19.968-16.128-33.621333-33.450667-41.002666-51.968-7.381333-18.56-11.093333-44.970667-11.093334-79.274667V221.312c0-48.725333-10.538667-85.76-31.701333-111.189333-21.12-25.386667-52.138667-38.058667-93.013333-38.058667zM327.808 415.36c-62.122667 0-112.64 47.402667-112.64 105.728h43.52c0-35.754667 31.018667-64.853333 69.12-64.853333 38.058667 0 69.077333 29.098667 69.077333 64.853333h43.52c0-58.325333-50.474667-105.728-112.64-105.728z m358.656 0c-62.122667 0-112.597333 47.402667-112.597333 105.728h43.52c0-35.754667 31.018667-64.853333 69.12-64.853333 38.058667 0 69.12 29.098667 69.12 64.853333h43.52c0-58.325333-50.56-105.728-112.64-105.728zM414.293333 612.693333v23.936c0 54.485333 45.312 98.816 100.949334 98.816 55.68 0 100.992-44.330667 100.992-98.816v-23.893333h-39.850667v23.893333c0 37.418667-32.426667 60.842667-61.141333 60.842667s-63.146667-11.648-63.146667-60.842667v-23.893333z" p-id="4264"></path></svg>